# Blender v2.76 (sub 0) OBJ File: 'basic head mesh.blend'
# www.blender.org
o Plane.011_Plane.022
v -0.312047 -0.443822 0.958303
v -0.070901 0.025452 -0.493271
v -0.070901 0.340763 -0.307181
v -0.146173 0.453802 -0.335734
v -0.200044 0.847258 -0.183225
v -0.061499 -0.095618 -0.357594
v -0.134202 0.285609 -0.240736
v -0.144590 -0.023997 -0.295211
v -0.485790 0.255823 -0.031025
v -0.398710 0.409677 -0.154701
v -0.425756 0.022439 -0.111423
v -0.082399 -0.160727 -0.394979
v -0.085711 -0.235366 -0.354827
v -0.074566 -0.293608 -0.386491
v -0.202650 -0.276943 -0.251254
v -0.320658 -0.241484 -0.176581
v -0.067814 -0.364838 -0.324193
v -0.069550 -0.530237 -0.338243
v -0.148700 -0.539794 -0.239599
v -0.448549 0.727742 -0.028409
v -0.274440 1.040682 0.359770
v -0.502239 0.890558 0.413850
v -0.540313 0.250447 0.404758
v -0.212770 -0.526100 -0.107369
v -0.346940 -0.377239 0.088544
v -0.460603 -0.184532 0.191316
v -0.053891 -0.574079 -0.268586
v -0.073928 -0.579376 -0.149791
v -0.155277 0.781168 0.923517
v -0.279199 0.662554 0.920857
v -0.279199 0.267514 0.966885
v -0.279199 -0.024531 0.805745
v -0.313476 -0.068451 0.579022
v -0.370385 -0.229054 0.352067
v -0.330968 -0.356705 0.294575
v -0.195884 -0.493097 0.167532
v -0.117458 -0.526813 0.114579
v -0.347984 -0.490400 0.732012
v -0.404798 -0.648992 0.503365
v -0.360071 -0.828101 0.436869
v -0.210345 -0.958531 0.295230
v -0.128263 -1.031954 0.248621
v 0.312047 -0.443822 0.958303
v 0.070901 0.025452 -0.493271
v 0.070901 0.340763 -0.307181
v 0.146173 0.453802 -0.335734
v 0.200044 0.847258 -0.183225
v 0.061499 -0.095618 -0.357594
v 0.134202 0.285609 -0.240736
v 0.144590 -0.023997 -0.295211
v 0.485790 0.255823 -0.031025
v 0.398710 0.409677 -0.154701
v 0.425756 0.022439 -0.111423
v 0.082399 -0.160727 -0.394979
v 0.085711 -0.235366 -0.354827
v 0.074566 -0.293608 -0.386491
v 0.202650 -0.276943 -0.251254
v 0.320658 -0.241484 -0.176581
v 0.067814 -0.364838 -0.324193
v 0.069550 -0.530237 -0.338243
v 0.148700 -0.539794 -0.239599
v 0.448549 0.727742 -0.028409
v 0.274440 1.040682 0.359770
v 0.502239 0.890558 0.413850
v 0.540313 0.250447 0.404758
v 0.212770 -0.526100 -0.107369
v 0.346940 -0.377239 0.088544
v 0.460603 -0.184532 0.191316
v 0.053891 -0.574079 -0.268586
v 0.073928 -0.579376 -0.149791
v 0.155277 0.781168 0.923517
v 0.279199 0.662554 0.920857
v 0.279199 0.267514 0.966885
v 0.279199 -0.024531 0.805745
v 0.313476 -0.068451 0.579022
v 0.370385 -0.229054 0.352067
v 0.330968 -0.356705 0.294575
v 0.195884 -0.493097 0.167532
v 0.117458 -0.526813 0.114579
v 0.347984 -0.490400 0.732012
v 0.404798 -0.648992 0.503365
v 0.360071 -0.828101 0.436869
v 0.210345 -0.958531 0.295230
v 0.128263 -1.031954 0.248621
v -0.000000 0.453802 -0.335734
v 0.000000 0.280451 1.063004
v -0.000000 0.865809 -0.183225
v 0.000000 1.066330 0.359770
v 0.000000 0.808954 0.947211
v 0.000000 -0.095172 0.924246
v 0.000000 -1.031954 0.246133
v 0.000000 -0.517121 1.090943
v 0.000000 -0.528499 0.114579
v -0.000000 -0.585059 -0.152197
v -0.000000 -0.530237 -0.338243
v -0.000000 -0.364838 -0.324193
v -0.000000 -0.293608 -0.386491
v -0.000000 -0.235366 -0.354827
v -0.000000 -0.182545 -0.389653
v -0.000000 -0.100171 -0.343333
v -0.000000 -0.071389 -0.438990
v -0.000000 0.025452 -0.493271
v -0.000000 0.340763 -0.307181
v -0.000000 -0.574079 -0.268586
vn -0.000000 0.508300 -0.861200
vn -0.000000 -0.244900 -0.969500
vn 0.000000 0.347100 -0.937800
vn 0.000000 -0.488900 -0.872300
vn -0.004100 -0.957600 -0.288100
vn -0.482900 -0.669700 -0.564200
vn -0.802900 0.303000 -0.513400
vn -0.446100 -0.393600 -0.803800
vn -0.515700 0.157500 -0.842200
vn 0.175100 0.447400 -0.877000
vn -0.067700 -0.470300 -0.879900
vn 0.000000 0.477600 -0.878600
vn -0.532700 -0.382500 -0.755000
vn -0.690100 0.239300 -0.683000
vn -0.166500 0.530700 -0.831100
vn -0.539400 -0.022500 -0.841700
vn 0.000000 -0.658300 -0.752700
vn -0.644500 -0.537100 -0.544200
vn 0.000000 0.084600 -0.996400
vn -0.781400 0.061000 -0.621100
vn -0.543500 -0.148200 -0.826200
vn -0.593500 0.219000 -0.774500
vn -0.086700 0.934600 -0.345100
vn -0.572300 0.744600 -0.343600
vn -0.989300 0.078800 -0.122800
vn -0.838100 -0.406200 -0.364000
vn -0.909100 -0.287600 -0.301300
vn -0.985000 -0.119300 -0.124700
vn 0.000000 -0.846300 -0.532700
vn -0.418900 -0.808000 -0.414400
vn -0.078400 -0.995300 -0.057600
vn -0.366000 -0.924900 -0.103000
vn -0.219600 0.893600 0.391500
vn -0.591200 0.605700 0.532500
vn -0.906200 0.047900 0.420200
vn -0.906400 0.048900 0.419600
vn -0.847700 -0.482000 0.221500
vn -0.825600 -0.341900 0.449000
vn -0.836800 -0.417800 0.353900
vn -0.644200 -0.754600 0.125100
vn -0.014100 -0.981100 0.192800
vn -0.314800 -0.939900 0.132200
vn -0.212500 0.200500 0.956400
vn -0.293400 -0.331300 0.896800
vn -0.290600 0.347200 0.891600
vn -0.608500 -0.191300 -0.770200
vn -0.003600 -0.252800 -0.967500
vn -0.746600 -0.154300 -0.647100
vn -0.905300 -0.070600 -0.418900
vn -0.979500 0.134400 0.150200
vn -0.984200 0.125600 0.124500
vn 0.004100 -0.957600 -0.288100
vn 0.752300 -0.516600 -0.408900
vn 0.802900 0.303000 -0.513400
vn 0.462500 -0.460800 -0.757500
vn 0.515700 0.157500 -0.842200
vn -0.231900 0.476800 -0.847900
vn 0.067700 -0.470300 -0.879900
vn 0.532700 -0.382500 -0.755000
vn 0.690100 0.239300 -0.683000
vn 0.794700 0.077800 -0.602000
vn 0.539400 -0.022500 -0.841700
vn 0.644500 -0.537100 -0.544200
vn 0.781400 0.061000 -0.621100
vn 0.543500 -0.148200 -0.826200
vn 0.589200 0.216700 -0.778400
vn 0.086700 0.934500 -0.345100
vn 0.572200 0.744600 -0.343600
vn 0.988000 0.060800 -0.142300
vn 0.838100 -0.406200 -0.364000
vn 0.884900 -0.373200 -0.278800
vn 0.985000 -0.119300 -0.124700
vn 0.418900 -0.808000 -0.414400
vn 0.000000 -0.995600 -0.093900
vn 0.366000 -0.924900 -0.103000
vn 0.084000 0.898300 0.431300
vn 0.413800 0.790600 0.451400
vn 0.906200 0.047900 0.420200
vn 0.906400 0.048900 0.419600
vn 0.880100 -0.229400 0.415800
vn 0.825600 -0.341900 0.449000
vn 0.826200 -0.550700 0.118900
vn 0.645300 -0.752800 0.130000
vn 0.068300 -0.976000 0.206900
vn 0.314800 -0.939900 0.132200
vn 0.212500 0.200500 0.956400
vn 0.442800 -0.433200 0.785000
vn 0.295200 0.351100 0.888600
vn 0.608500 -0.191300 -0.770200
vn 0.018700 -0.256100 -0.966500
vn 0.746600 -0.154300 -0.647100
vn 0.905300 -0.070600 -0.418900
vn 0.979500 0.134400 0.150200
vn 0.983600 0.124600 0.130600
vn -0.033100 0.357300 -0.933400
vn -0.752300 -0.516600 -0.408900
vn -0.940600 0.089200 -0.327700
vn -0.462500 -0.460800 -0.757500
vn -0.410200 -0.470500 -0.781300
vn -0.520400 0.164900 -0.837800
vn 0.231900 0.476800 -0.847900
vn 0.000000 -0.550400 -0.834900
vn -0.794700 0.077800 -0.602000
vn -0.548500 -0.012000 -0.836100
vn -0.560600 -0.151200 -0.814200
vn -0.589200 0.216700 -0.778400
vn -0.087300 0.934600 -0.344900
vn -0.572200 0.744600 -0.343600
vn -0.854700 0.070300 -0.514300
vn -0.988000 0.060800 -0.142300
vn -0.869000 -0.400200 -0.291100
vn -0.884900 -0.373200 -0.278800
vn -0.959400 -0.169000 -0.225900
vn -0.380400 -0.920500 -0.089000
vn -0.084000 0.898300 0.431300
vn -0.413800 0.790600 0.451400
vn -0.880100 -0.229400 0.415800
vn -0.855900 -0.345600 0.384700
vn -0.826200 -0.550700 0.118900
vn -0.645300 -0.752800 0.130000
vn -0.068300 -0.976000 0.206900
vn -0.319100 -0.938200 0.134000
vn -0.328100 0.109300 0.938300
vn -0.184100 0.210400 0.960100
vn -0.442800 -0.433200 0.785000
vn -0.295200 0.351100 0.888600
vn -0.604700 -0.193200 -0.772600
vn -0.018700 -0.256100 -0.966500
vn -0.752500 -0.147300 -0.641900
vn -0.897800 -0.082300 -0.432700
vn -0.979400 0.134600 0.150300
vn -0.983600 0.124600 0.130600
vn 0.033100 0.357300 -0.933400
vn 0.482900 -0.669700 -0.564200
vn 0.940600 0.089200 -0.327700
vn 0.410200 -0.470500 -0.781300
vn 0.446100 -0.393600 -0.803800
vn 0.520400 0.164900 -0.837800
vn -0.175100 0.447400 -0.877000
vn 0.166500 0.530700 -0.831100
vn 0.548500 -0.012000 -0.836100
vn 0.560600 -0.151200 -0.814200
vn 0.593500 0.219000 -0.774500
vn 0.087300 0.934600 -0.344900
vn 0.572300 0.744600 -0.343600
vn 0.989300 0.078800 -0.122800
vn 0.854700 0.070300 -0.514300
vn 0.869000 -0.400200 -0.291100
vn 0.909100 -0.287600 -0.301300
vn 0.959400 -0.169000 -0.225900
vn 0.078400 -0.995300 -0.057600
vn 0.380400 -0.920500 -0.089000
vn 0.219600 0.893600 0.391500
vn 0.591200 0.605700 0.532500
vn 0.847700 -0.482000 0.221500
vn 0.855900 -0.345600 0.384700
vn 0.836800 -0.417800 0.353900
vn 0.644200 -0.754600 0.125100
vn 0.014100 -0.981100 0.192800
vn 0.319100 -0.938200 0.134000
vn 0.184100 0.210400 0.960100
vn 0.328100 0.109300 0.938300
vn 0.293400 -0.331300 0.896800
vn 0.290600 0.347200 0.891600
vn 0.604700 -0.193200 -0.772600
vn 0.003600 -0.252800 -0.967500
vn 0.752500 -0.147300 -0.641900
vn 0.897800 -0.082300 -0.432700
vn 0.979400 0.134600 0.150300
vn 0.984200 0.125600 0.124500
s off
f 2//1 3//1 103//1
f 85//2 103//2 3//2
f 87//3 85//3 4//3
f 102//4 101//4 2//4
f 100//5 6//5 101//5
f 2//6 101//6 6//6
f 7//7 3//7 2//7
f 7//8 9//8 10//8
f 11//9 9//9 7//9
f 99//10 12//10 6//10
f 13//11 12//11 99//11
f 14//12 13//12 98//12
f 13//13 15//13 12//13
f 14//14 15//14 13//14
f 8//15 6//15 12//15
f 8//16 15//16 16//16
f 17//17 14//17 97//17
f 15//18 14//18 17//18
f 95//19 18//19 17//19
f 18//20 19//20 17//20
f 15//21 17//21 19//21
f 5//22 4//22 10//22
f 88//23 87//23 5//23
f 20//24 22//24 21//24
f 23//25 20//25 9//25
f 16//26 19//26 24//26
f 26//27 11//27 16//27
f 26//28 23//28 9//28
f 95//29 104//29 27//29
f 19//30 18//30 27//30
f 94//31 28//31 27//31
f 19//32 27//32 28//32
f 29//33 89//33 88//33
f 22//34 30//34 29//34
f 23//35 30//35 22//35
f 30//36 23//36 31//36
f 23//37 33//37 32//37
f 34//38 33//38 23//38
f 35//39 34//39 26//39
f 36//40 35//40 25//40
f 93//41 37//41 28//41
f 37//42 36//42 24//42
f 29//43 30//43 86//43
f 90//44 86//44 31//44
f 90//45 32//45 1//45
f 37//46 42//46 41//46
f 37//47 93//47 91//47
f 36//48 41//48 40//48
f 35//49 40//49 39//49
f 34//50 39//50 38//50
f 32//51 33//51 38//51
f 103//1 45//1 44//1
f 45//2 103//2 85//2
f 46//3 85//3 87//3
f 102//4 44//4 101//4
f 100//52 101//52 48//52
f 44//53 50//53 48//53
f 44//54 45//54 49//54
f 52//55 49//55 46//55
f 49//56 51//56 53//56
f 99//57 100//57 48//57
f 99//58 54//58 55//58
f 98//12 55//12 56//12
f 55//59 54//59 57//59
f 56//60 55//60 57//60
f 50//61 57//61 54//61
f 58//62 57//62 50//62
f 97//17 56//17 59//17
f 57//63 59//63 56//63
f 95//19 96//19 59//19
f 60//64 59//64 61//64
f 61//65 59//65 57//65
f 47//66 62//66 52//66
f 47//67 87//67 88//67
f 62//68 47//68 63//68
f 62//69 64//69 65//69
f 66//70 61//70 58//70
f 68//71 67//71 58//71
f 51//72 65//72 68//72
f 69//29 104//29 95//29
f 61//73 69//73 60//73
f 94//74 104//74 69//74
f 70//75 69//75 61//75
f 71//76 63//76 88//76
f 64//77 63//77 71//77
f 65//78 64//78 72//78
f 72//79 73//79 65//79
f 65//80 73//80 74//80
f 65//81 75//81 76//81
f 77//82 67//82 68//82
f 78//83 66//83 67//83
f 93//84 94//84 70//84
f 66//85 78//85 79//85
f 72//86 71//86 86//86
f 90//87 74//87 73//87
f 90//88 92//88 43//88
f 83//89 84//89 79//89
f 79//90 84//90 91//90
f 82//91 83//91 78//91
f 81//92 82//92 77//92
f 80//93 81//93 76//93
f 74//94 43//94 80//94
f 102//1 2//1 103//1
f 4//2 85//2 3//2
f 5//95 87//95 4//95
f 8//96 2//96 6//96
f 8//97 7//97 2//97
f 10//98 4//98 7//98
f 3//99 7//99 4//99
f 8//100 11//100 7//100
f 100//101 99//101 6//101
f 98//102 13//102 99//102
f 97//12 14//12 98//12
f 15//103 8//103 12//103
f 11//104 8//104 16//104
f 96//17 17//17 97//17
f 96//19 95//19 17//19
f 16//105 15//105 19//105
f 20//106 5//106 10//106
f 21//107 88//107 5//107
f 5//108 20//108 21//108
f 10//109 9//109 20//109
f 23//110 22//110 20//110
f 25//111 16//111 24//111
f 25//112 26//112 16//112
f 11//113 26//113 9//113
f 18//29 95//29 27//29
f 104//74 94//74 27//74
f 24//114 19//114 28//114
f 21//115 29//115 88//115
f 21//116 22//116 29//116
f 31//117 23//117 32//117
f 26//118 34//118 23//118
f 25//119 35//119 26//119
f 24//120 36//120 25//120
f 94//121 93//121 28//121
f 28//122 37//122 24//122
f 31//123 86//123 30//123
f 89//124 29//124 86//124
f 32//125 90//125 31//125
f 92//126 90//126 1//126
f 36//127 37//127 41//127
f 42//128 37//128 91//128
f 35//129 36//129 40//129
f 34//130 35//130 39//130
f 33//131 34//131 38//131
f 1//132 32//132 38//132
f 102//1 103//1 44//1
f 46//2 45//2 85//2
f 47//133 46//133 87//133
f 101//134 44//134 48//134
f 50//135 44//135 49//135
f 45//136 46//136 49//136
f 52//137 51//137 49//137
f 50//138 49//138 53//138
f 54//139 99//139 48//139
f 98//102 99//102 55//102
f 97//12 98//12 56//12
f 48//140 50//140 54//140
f 53//141 58//141 50//141
f 96//17 97//17 59//17
f 60//19 95//19 59//19
f 58//142 61//142 57//142
f 46//143 47//143 52//143
f 63//144 47//144 88//144
f 64//145 62//145 63//145
f 65//146 51//146 62//146
f 52//147 62//147 51//147
f 67//148 66//148 58//148
f 53//149 68//149 58//149
f 53//150 51//150 68//150
f 60//29 69//29 95//29
f 70//151 94//151 69//151
f 66//152 70//152 61//152
f 89//153 71//153 88//153
f 72//154 64//154 71//154
f 75//155 65//155 74//155
f 68//156 65//156 76//156
f 76//157 77//157 68//157
f 77//158 78//158 67//158
f 79//159 93//159 70//159
f 70//160 66//160 79//160
f 89//161 86//161 71//161
f 73//162 72//162 86//162
f 86//163 90//163 73//163
f 74//164 90//164 43//164
f 78//165 83//165 79//165
f 93//166 79//166 91//166
f 77//167 82//167 78//167
f 76//168 81//168 77//168
f 75//169 80//169 76//169
f 75//170 74//170 80//170
